<?xml version="1.0" encoding="utf-8"?>
<!-- Generator: Adobe Illustrator 25.2.0, SVG Export Plug-In . SVG Version: 6.00 Build 0)  -->
<svg version="1.1" id="Layer_4" xmlns="http://www.w3.org/2000/svg" xmlns:xlink="http://www.w3.org/1999/xlink" x="0px" y="0px"
	 viewBox="0 0 542.13 340.45" style="enable-background:new 0 0 542.13 340.45;" xml:space="preserve">
<style type="text/css">
	.st0{opacity:0;}
	.st1{opacity:0.0196;}
	.st2{opacity:0.0392;}
	.st3{opacity:0.0588;}
	.st4{opacity:0.0784;}
	.st5{opacity:0.098;}
	.st6{opacity:0.1176;}
	.st7{opacity:0.1373;}
	.st8{opacity:0.1569;}
	.st9{opacity:0.1765;}
	.st10{opacity:0.1961;}
	.st11{opacity:0.2157;}
	.st12{opacity:0.2353;}
	.st13{opacity:0.2549;}
	.st14{opacity:0.2745;}
	.st15{opacity:0.2941;}
	.st16{opacity:0.3137;}
	.st17{opacity:0.3333;}
	.st18{opacity:0.3529;}
	.st19{opacity:0.3725;}
	.st20{opacity:0.3922;}
	.st21{opacity:0.4118;}
	.st22{opacity:0.4314;}
	.st23{opacity:0.451;}
	.st24{opacity:0.4706;}
	.st25{opacity:0.4902;}
	.st26{opacity:0.5098;}
	.st27{opacity:0.5294;}
	.st28{opacity:0.549;}
	.st29{opacity:0.5686;}
	.st30{opacity:0.5882;}
	.st31{opacity:0.6078;}
	.st32{opacity:0.6275;}
	.st33{opacity:0.6471;}
	.st34{opacity:0.6667;}
	.st35{opacity:0.6863;}
	.st36{opacity:0.7059;}
	.st37{opacity:0.7255;}
	.st38{opacity:0.7451;}
	.st39{opacity:0.7647;}
	.st40{opacity:0.7843;}
	.st41{opacity:0.8039;}
	.st42{opacity:0.8235;}
	.st43{opacity:0.8431;}
	.st44{opacity:0.8627;}
	.st45{opacity:0.8824;}
	.st46{opacity:0.902;}
	.st47{opacity:0.9216;}
	.st48{opacity:0.9412;}
	.st49{opacity:0.9608;}
	.st50{opacity:0.9804;}
	.st51{fill:#FFFFFF;}
	.st52{fill:#656D84;}
	.st53{fill:#E6E7EB;}
	.st54{fill:#F5E1D6;}
	.st55{fill:#F99926;}
	.st56{fill:#F2F2F4;}
	.st57{fill:#CCCCCC;}
	.st58{fill:#FEA67C;}
	.st59{fill:#FDA77C;}
	.st60{fill:#282449;}
	.st61{fill:#AFB866;}
	.st62{fill:#505572;}
	.st63{fill:#FDA37A;}
	.st64{fill:#EF8F6A;}
	.st65{fill:#F5E4D9;}
	.st66{fill:#F5E2D9;}
	.st67{fill:#858949;}
	.st68{fill:#D6BFB2;}
	.st69{fill:#EA8C68;}
	.st70{fill:#F6B661;}
	.st71{fill:#9A97A2;}
	.st72{fill:#FCAB80;}
	.st73{fill:#DE7F53;}
	.st74{fill:#C97450;}
	.st75{fill:#A5593F;}
	.st76{fill:#2A244A;}
	.st77{fill:#FBB762;}
	.st78{fill:#515472;}
	.st79{fill:#DD9547;}
	.st80{fill:#1E1808;}
</style>
<g>
	<g>
		<path class="st0" d="M461.13,50.96v236.39H74.88V50.96c0-8.81,7.14-15.94,15.94-15.94h354.36
			C453.99,35.01,461.13,42.15,461.13,50.96z"/>
		<path class="st1" d="M459.61,51.82v234.53H76.4V51.82C76.4,43.08,83.49,36,92.22,36h351.57C452.52,36,459.61,43.08,459.61,51.82z"
			/>
		<path class="st2" d="M458.09,52.69v232.67H77.92V52.69c0-8.67,7.03-15.69,15.69-15.69H442.4C451.06,37,458.09,44.02,458.09,52.69z
			"/>
		<path class="st3" d="M456.57,53.56v230.81H79.44V53.56c0-8.6,6.97-15.57,15.57-15.57h346C449.6,37.99,456.57,44.95,456.57,53.56z"
			/>
		<path class="st4" d="M455.06,54.42v228.95H80.96V54.42c0-8.54,6.92-15.44,15.44-15.44h343.21
			C448.14,38.98,455.06,45.89,455.06,54.42z"/>
		<path class="st5" d="M453.54,55.29v227.09H82.47V55.29c0-8.47,6.86-15.32,15.32-15.32h340.43
			C446.68,39.97,453.54,46.82,453.54,55.29z"/>
		<path class="st6" d="M452.02,56.16v225.24H83.99V56.16c0-8.4,6.81-15.19,15.19-15.19h337.64
			C445.21,40.96,452.02,47.76,452.02,56.16z"/>
		<path class="st7" d="M450.5,57.02V280.4H85.51V57.02c0-8.33,6.75-15.07,15.07-15.07h334.86C443.75,41.95,450.5,48.69,450.5,57.02z
			"/>
		<path class="st8" d="M448.98,57.89v221.52H87.03V57.89c0-8.26,6.69-14.94,14.94-14.94h332.07
			C442.29,42.95,448.98,49.63,448.98,57.89z"/>
		<path class="st9" d="M447.47,58.75v219.66H88.55V58.75c0-8.19,6.64-14.82,14.82-14.82h329.29
			C440.83,43.94,447.47,50.57,447.47,58.75z"/>
		<path class="st10" d="M445.95,59.62v217.8H90.06V59.62c0-8.12,6.58-14.69,14.69-14.69h326.5
			C439.37,44.93,445.95,51.5,445.95,59.62z"/>
		<path class="st11" d="M444.43,60.49v215.95H91.58V60.49c0-8.05,6.52-14.57,14.57-14.57h323.72
			C437.9,45.92,444.43,52.44,444.43,60.49z"/>
		<path class="st12" d="M442.91,61.35v214.09H93.1V61.35c0-7.98,6.47-14.44,14.44-14.44h320.93
			C436.44,46.91,442.91,53.37,442.91,61.35z"/>
		<path class="st13" d="M441.39,62.22v212.23H94.62V62.22c0-7.91,6.41-14.32,14.32-14.32h318.15
			C434.98,47.91,441.39,54.31,441.39,62.22z"/>
		<path class="st14" d="M439.88,63.09v210.37H96.14V63.09c0-7.84,6.36-14.19,14.19-14.19h315.36
			C433.52,48.9,439.88,55.24,439.88,63.09z"/>
		<path class="st15" d="M438.36,63.95v208.51H97.65V63.95c0-7.77,6.3-14.06,14.06-14.06h312.57
			C432.06,49.89,438.36,56.18,438.36,63.95z"/>
		<path class="st16" d="M436.84,64.82v206.65H99.17V64.82c0-7.7,6.24-13.94,13.94-13.94H422.9
			C430.59,50.88,436.84,57.12,436.84,64.82z"/>
		<path class="st17" d="M435.32,65.69v204.8H100.69V65.69c0-7.63,6.19-13.81,13.81-13.81h307
			C429.13,51.87,435.32,58.05,435.32,65.69z"/>
		<path class="st18" d="M433.8,66.55v202.94H102.21V66.55c0-7.57,6.13-13.69,13.69-13.69h304.22
			C427.67,52.86,433.8,58.99,433.8,66.55z"/>
		<path class="st19" d="M432.28,67.42V268.5H103.73V67.42c0-7.5,6.08-13.56,13.56-13.56h301.43
			C426.21,53.86,432.28,59.92,432.28,67.42z"/>
		<path class="st20" d="M430.77,68.29v199.22H105.24V68.29c0-7.43,6.02-13.44,13.44-13.44h298.65
			C424.75,54.85,430.77,60.86,430.77,68.29z"/>
		<path class="st21" d="M429.25,69.15v197.36H106.76V69.15c0-7.36,5.96-13.31,13.31-13.31h295.86
			C423.29,55.84,429.25,61.79,429.25,69.15z"/>
		<path class="st22" d="M427.73,70.02v195.51H108.28V70.02c0-7.29,5.91-13.19,13.19-13.19h293.08
			C421.82,56.83,427.73,62.73,427.73,70.02z"/>
		<path class="st23" d="M426.21,70.88v193.65H109.8V70.88c0-7.22,5.85-13.06,13.06-13.06h290.29
			C420.36,57.82,426.21,63.67,426.21,70.88z"/>
		<path class="st24" d="M424.69,71.75v191.79H111.32V71.75c0-7.15,5.8-12.94,12.94-12.94h287.51
			C418.9,58.81,424.69,64.6,424.69,71.75z"/>
		<path class="st25" d="M423.18,72.62v189.93H112.83V72.62c0-7.08,5.74-12.81,12.81-12.81h284.72
			C417.44,59.81,423.18,65.54,423.18,72.62z"/>
		<path class="st26" d="M421.66,73.48v188.07H114.35V73.48c0-7.01,5.68-12.69,12.69-12.69h281.93
			C415.98,60.8,421.66,66.47,421.66,73.48z"/>
		<path class="st27" d="M420.14,74.35v186.22H115.87V74.35c0-6.94,5.63-12.56,12.56-12.56h279.15
			C414.51,61.79,420.14,67.41,420.14,74.35z"/>
		<path class="st28" d="M418.62,75.22v184.36H117.39V75.22c0-6.87,5.57-12.44,12.44-12.44h276.36
			C413.05,62.78,418.62,68.34,418.62,75.22z"/>
		<path class="st29" d="M417.1,76.08v182.5h-298.2V76.08c0-6.8,5.51-12.31,12.31-12.31h273.58C411.59,63.77,417.1,69.28,417.1,76.08
			z"/>
		<path class="st30" d="M415.59,76.95v180.64H120.42V76.95c0-6.73,5.46-12.18,12.18-12.18H403.4
			C410.13,64.76,415.59,70.22,415.59,76.95z"/>
		<path class="st31" d="M414.07,77.82V256.6H121.94V77.82c0-6.66,5.4-12.06,12.06-12.06h268.01
			C408.67,65.76,414.07,71.15,414.07,77.82z"/>
		<path class="st32" d="M412.55,78.68v176.92H123.46V78.68c0-6.6,5.35-11.93,11.93-11.93h265.22
			C407.2,66.75,412.55,72.09,412.55,78.68z"/>
		<path class="st33" d="M411.03,79.55v175.07H124.98V79.55c0-6.53,5.29-11.81,11.81-11.81h262.44
			C405.74,67.74,411.03,73.02,411.03,79.55z"/>
		<path class="st34" d="M409.51,80.41v173.21H126.5V80.41c0-6.46,5.23-11.68,11.68-11.68h259.65
			C404.28,68.73,409.51,73.96,409.51,80.41z"/>
		<path class="st35" d="M408,81.28v171.35H128.01V81.28c0-6.39,5.18-11.56,11.56-11.56h256.87C402.82,69.72,408,74.89,408,81.28z"/>
		<path class="st36" d="M406.48,82.15v169.49H129.53V82.15c0-6.32,5.12-11.43,11.43-11.43h254.08
			C401.36,70.72,406.48,75.83,406.48,82.15z"/>
		<path class="st37" d="M404.96,83.01v167.63H131.05V83.01c0-6.25,5.07-11.31,11.31-11.31h251.29
			C399.89,71.71,404.96,76.76,404.96,83.01z"/>
		<path class="st38" d="M403.44,83.88v165.78H132.57V83.88c0-6.18,5.01-11.18,11.18-11.18h248.51
			C398.43,72.7,403.44,77.7,403.44,83.88z"/>
		<path class="st39" d="M401.92,84.75v163.92H134.09V84.75c0-6.11,4.95-11.06,11.06-11.06h245.72
			C396.97,73.69,401.92,78.64,401.92,84.75z"/>
		<path class="st40" d="M400.41,85.61v162.06h-264.8V85.61c0-6.04,4.9-10.93,10.93-10.93h242.94
			C395.51,74.68,400.41,79.57,400.41,85.61z"/>
		<path class="st41" d="M398.89,86.48v160.2H137.12V86.48c0-5.97,4.84-10.81,10.81-10.81h240.15
			C394.05,75.67,398.89,80.51,398.89,86.48z"/>
		<path class="st42" d="M397.37,87.35v158.34H138.64V87.35c0-5.9,4.78-10.68,10.68-10.68h237.37
			C392.58,76.67,397.37,81.44,397.37,87.35z"/>
		<path class="st43" d="M395.85,88.21V244.7H140.16V88.21c0-5.83,4.73-10.56,10.56-10.56H385.3
			C391.12,77.66,395.85,82.38,395.85,88.21z"/>
		<path class="st44" d="M394.33,89.08v154.63H141.68V89.08c0-5.76,4.67-10.43,10.43-10.43h231.8
			C389.66,78.65,394.33,83.31,394.33,89.08z"/>
		<path class="st45" d="M392.82,89.95v152.77H143.2V89.95c0-5.7,4.62-10.3,10.3-10.3h229.01C388.2,79.64,392.82,84.25,392.82,89.95z
			"/>
		<path class="st46" d="M391.3,90.81v150.91H144.71V90.81c0-5.63,4.56-10.18,10.18-10.18h226.23
			C386.74,80.63,391.3,85.19,391.3,90.81z"/>
		<path class="st47" d="M389.78,91.68v149.05H146.23V91.68c0-5.56,4.5-10.05,10.05-10.05h223.44
			C385.28,81.62,389.78,86.12,389.78,91.68z"/>
		<path class="st48" d="M388.26,92.54v147.19H147.75V92.54c0-5.49,4.45-9.93,9.93-9.93h220.65
			C383.81,82.62,388.26,87.06,388.26,92.54z"/>
		<path class="st49" d="M386.74,93.41v145.34H149.27V93.41c0-5.42,4.39-9.8,9.8-9.8h217.87C382.35,83.61,386.74,87.99,386.74,93.41z
			"/>
		<path class="st50" d="M385.22,94.28v143.48H150.79V94.28c0-5.35,4.34-9.68,9.68-9.68h215.08
			C380.89,84.6,385.22,88.93,385.22,94.28z"/>
		<path d="M383.71,95.14v141.62H152.3V95.14c0-5.28,4.28-9.55,9.55-9.55h212.3C379.43,85.59,383.71,89.86,383.71,95.14z"/>
	</g>
	<g>
		<path class="st51" d="M455.38,54.24v229.35H80.63V54.24c0-8.55,6.93-15.47,15.47-15.47h343.81
			C448.45,38.77,455.38,45.69,455.38,54.24z"/>
	</g>
	<g>
		<path class="st52" d="M455.38,54.24v6.35H80.63v-6.35c0-8.55,6.93-15.47,15.47-15.47h343.81
			C448.45,38.77,455.38,45.69,455.38,54.24z"/>
	</g>
	<g>
		<path class="st53" d="M434.84,92.1H102.15c-6.55,0-11.86-5.31-11.86-11.86v0c0-6.55,5.31-11.86,11.86-11.86h332.69
			c6.55,0,11.86,5.31,11.86,11.86v0C446.7,86.79,441.39,92.1,434.84,92.1z"/>
	</g>
	<g>
		<path class="st54" d="M272.46,164.69H166.59c-3.95,0-7.15-3.2-7.15-7.15v-25.87c0-3.95,3.2-7.15,7.15-7.15h105.87
			c3.95,0,7.15,3.2,7.15,7.15v25.87C279.62,161.49,276.41,164.69,272.46,164.69z"/>
	</g>
	<path class="st51" d="M117.02,80.89h-14.44c-0.36,0-0.66-0.29-0.66-0.66s0.29-0.66,0.66-0.66h14.44c0.36,0,0.66,0.29,0.66,0.66
		S117.38,80.89,117.02,80.89z"/>
	<path class="st51" d="M117.02,75.86h-14.44c-0.36,0-0.66-0.29-0.66-0.66c0-0.36,0.29-0.66,0.66-0.66h14.44
		c0.36,0,0.66,0.29,0.66,0.66C117.68,75.57,117.38,75.86,117.02,75.86z"/>
	<path class="st51" d="M117.02,85.93h-14.44c-0.36,0-0.66-0.29-0.66-0.66s0.29-0.66,0.66-0.66h14.44c0.36,0,0.66,0.29,0.66,0.66
		S117.38,85.93,117.02,85.93z"/>
	<g>
		<circle class="st55" cx="259.04" cy="122.42" r="13.09"/>
	</g>
	<g>
		<rect x="174.4" y="135.01" class="st51" width="56.81" height="1"/>
	</g>
	<g>
		<rect x="174.4" y="143.2" class="st51" width="27.36" height="1"/>
	</g>
	<g>
		<rect x="174.4" y="151.29" class="st51" width="56.81" height="1"/>
	</g>
	<g>
		<path class="st56" d="M260.13,249.46H117.01c-6.6,0-12-5.4-12-12v-46.78c0-6.6,5.4-12,12-12h143.12c6.6,0,12,5.4,12,12v46.78
			C272.13,244.06,266.73,249.46,260.13,249.46z"/>
		<path class="st57" d="M260.13,249.96H117.01c-6.89,0-12.5-5.61-12.5-12.5v-46.78c0-6.89,5.61-12.5,12.5-12.5h143.12
			c6.89,0,12.5,5.61,12.5,12.5v46.78C272.63,244.35,267.03,249.96,260.13,249.96z M117.01,179.18c-6.34,0-11.5,5.16-11.5,11.5v46.78
			c0,6.34,5.16,11.5,11.5,11.5h143.12c6.34,0,11.5-5.16,11.5-11.5v-46.78c0-6.34-5.16-11.5-11.5-11.5H117.01z"/>
	</g>
	<g>
		<path class="st51" d="M414.08,87.36h-180.8c-4.19,0-7.58-3.39-7.58-7.58v0c0-4.19,3.39-7.58,7.58-7.58h180.8
			c4.19,0,7.58,3.39,7.58,7.58v0C421.66,83.96,418.27,87.36,414.08,87.36z"/>
	</g>
	<g>
		<g>
			<path class="st51" d="M426.08,78.95c0,3.41,2.76,6.17,6.17,6.17s6.17-2.76,6.17-6.17c0-3.41-2.76-6.17-6.17-6.17
				S426.08,75.54,426.08,78.95z M427.78,78.95c0-2.47,2-4.47,4.47-4.47s4.47,2,4.47,4.47c0,2.47-2,4.47-4.47,4.47
				S427.78,81.42,427.78,78.95z"/>
		</g>
	</g>
	<g>
		<g>
			<path class="st51" d="M436.4,82.96l2.06,2.96c0.38,0.55,0.21,1.3-0.36,1.63l0,0c-0.51,0.29-1.15,0.16-1.49-0.32l-2.03-2.81
				L436.4,82.96z"/>
		</g>
	</g>
	<g>
		<path class="st58" d="M179.16,209.61c0,0,4.89,20.08,18.77,3.11c13.88-16.97,42.94-43.8,42.94-43.8s1.29-9.17,6.43-13.8
			c5.14-4.63,4.11-3.98,5.14-6.49c1.03-2.51,4.11,3.66,2.83,6.49s-6.29,9.57-2.69,9.57s27.61,0,27.61,0s-3.05,6.51-6.9,7.1
			c-3.86,0.59-14.67,4.61-23.41,17.79c-8.74,13.18-51.64,79.09-67.09,75.93s-22.39-22.02-22.39-22.02L179.16,209.61z"/>
	</g>
	<g>
		<path class="st58" d="M113.94,182.35c0,0,32.41-23.44,34.45-32.41c2.04-8.97,4.01-14.68,5.67-16.51c1.67-1.83,1.26-5.1,1.26-5.1
			s1.72-3.16,3.91-2.77v30.85c0,0,2.19,0.26,4.17-1.85c1.99-2.12,3.44-3.18,4.9-3.05c1.46,0.13,2.12,2.12,0,4.5
			c-2.12,2.38-5.7,6.76-6.89,8.88s-8.48,8.48-8.48,8.48l-11.14,10.73L113.94,182.35z"/>
	</g>
	<g>
		<path class="st59" d="M41.78,224.49c0,0-12.92,15.07-9.29,28s20.26,13.13,20.26,13.13l2.56-26.75L41.78,224.49z"/>
	</g>
	<g>
		<path class="st60" d="M132.92,138.69l-18.27,30.23l-9.44-4.86l-4.11-2.11c0,0.01,0,0.01-0.01,0.02
			c-0.26,0.55-5.83,11.66-17.64,5.25c0,0-4.51,17.65-23.19,17.86c-18.67,0.2-27.5-13.62-28.73-23.13
			c-1.23-9.5-3.84-37.24,35.3-34.95c0,0-1.23-10.47,10.06-14.37c11.28-3.9,24.63,19.09,24.63,19.09s1.84-1.44,4.51,0
			c0,0-1.44-10.47,7.59-10.68c0,0-0.2-5.74,7.19-5.33c7.39,0.41,6.36,6.24,6.36,6.24s7.8-2.34,11.08,4.02
			C141.54,132.33,132.92,138.69,132.92,138.69z"/>
	</g>
	<g>
		<path class="st61" d="M105.21,164.06l-4.11-2.11c2.87-8.92,0.42-30.23,0.42-30.23s1.84-1.44,4.51,0
			C109.76,147.07,105.21,164.06,105.21,164.06z"/>
	</g>
	<g>
		<path class="st62" d="M31.34,157.68L30.6,157c0.8-0.87,19.63-21.37,29.98-22.12c6.19-0.45,9.22,1.9,11.9,3.97
			c1.87,1.45,3.64,2.82,6.32,3.14c12.74,1.53,20.01-1.88,22.23-10.4l0.97,0.25c-3.53,13.52-18.43,11.73-23.32,11.14
			c-2.95-0.35-4.83-1.8-6.81-3.34c-2.66-2.06-5.4-4.18-11.22-3.76C50.7,136.6,31.53,157.47,31.34,157.68z"/>
	</g>
	<g>
		<path class="st62" d="M41.44,179l-0.77-0.64c1-1.2,24.49-29.41,34.68-27.05c2.85,0.66,5.42,2.03,7.91,3.36
			c6.23,3.32,11.6,6.19,18.81-4.03l0.82,0.58c-7.72,10.93-13.74,7.73-20.1,4.33c-2.43-1.29-4.94-2.63-7.66-3.27
			C65.51,150.04,41.67,178.71,41.44,179z"/>
	</g>
	<g>
		<path class="st62" d="M86.83,128.11c-1.85,0-3.95-0.23-6.32-0.83c-11-2.75-12.22-8.04-12.27-8.26l0.98-0.2l-0.49,0.1l0.49-0.11
			c0.01,0.05,1.21,4.92,11.53,7.5c10.39,2.6,15.46-2.11,15.51-2.15l0.69,0.72C96.78,125.05,93.52,128.11,86.83,128.11z"/>
	</g>
	<g>
		<path class="st62" d="M53.43,184.33l-0.9-0.45c0.1-0.21,10.61-20.77,28.98-12.01l-0.43,0.9
			C63.59,164.45,53.53,184.13,53.43,184.33z"/>
	</g>
	<g>
		<path class="st62" d="M113.05,131.21l-0.97-0.26c0.07-0.27,1.83-6.65,6.78-9.22c2.5-1.3,5.35-1.38,8.49-0.25l-0.34,0.94
			c-2.86-1.04-5.44-0.97-7.68,0.19C114.77,124.98,113.06,131.15,113.05,131.21z"/>
	</g>
	<g>
		<path class="st62" d="M108.12,144.65l-0.97-0.25c0.07-0.28,1.83-6.94,5.92-8.59c1.66-0.67,3.44-0.42,5.31,0.72
			c6.94,4.27,11.48,0.38,11.67,0.21l0.67,0.75c-0.05,0.05-5.26,4.56-12.86-0.11c-1.58-0.97-3.06-1.19-4.41-0.65
			C109.82,138.2,108.14,144.59,108.12,144.65z"/>
	</g>
	<g>
		<circle class="st51" cx="96.6" cy="49.68" r="3.78"/>
	</g>
	<g>
		<circle class="st51" cx="108.79" cy="49.68" r="3.78"/>
	</g>
	<g>
		<circle class="st51" cx="120.82" cy="49.68" r="3.78"/>
	</g>
	<g>
		<path class="st63" d="M136.95,150.82c-0.83,0.83-2.73,2.25-2.26,4.63c0.48,2.38,0.71,11.41-9.98,11.53c0,0-0.66,2.24-1.17,4.68
			c-0.44,2.09-0.77,4.33-0.5,5.46c0.6,2.46-30.31,1.28-30.31,1.28s12.22-10.25,8.49-16.84c0,0,12.73,2.49,17.19-5.73
			c0,0,4.02,0.79,2.88-3.23c0,0-5.07-2.45-3.15-6.65c1.93-4.19,6.39-1.48,6.39-1.48s-1.32-1.93,0.96-2.97
			c2.27-1.05,4.46-1.23,4.89-4.38c0.44-3.14,2.85,1.33,2.85,1.33s0.68,1.48,0.68,2.4s-0.65,4.26,0,5.8
			C134.57,148.2,137.78,149.98,136.95,150.82z"/>
	</g>
	<g>
		<path class="st64" d="M119.43,157.69c-0.05,0.33-0.08,0.65-0.08,0.96C119.38,158.24,119.41,157.92,119.43,157.69z"/>
	</g>
	<g>
		<path class="st64" d="M124.71,166.98c0,0-0.66,2.24-1.17,4.68c-4.15-2.73-4.36-9.44-4.21-12.6
			C119.4,164.68,124.71,166.98,124.71,166.98z"/>
	</g>
	<g>
		<path class="st64" d="M120.32,149.82c-0.22,0-0.42-0.14-0.48-0.36c-0.35-1.18-0.25-2.08,0.29-2.69c0.84-0.96,2.41-0.72,2.47-0.71
			c0.27,0.04,0.46,0.3,0.41,0.57c-0.04,0.27-0.3,0.46-0.57,0.42c-0.3-0.05-1.17-0.07-1.57,0.38c-0.37,0.42-0.24,1.18-0.08,1.75
			c0.08,0.26-0.07,0.54-0.34,0.62C120.42,149.82,120.37,149.82,120.32,149.82z"/>
	</g>
	<g>
		<path class="st65" d="M182.78,207.76l-22.94,42.07l-15.68-17.21c0,0-17.43,30.85-22.98,43.74c-0.73,1.71-1.25,3.11-1.5,4.07
			c-2.1,8.21-1.91,22.56-7.45,23.7c-5.55,1.15-79.74,1.91-79.74,1.91s6.12-19.12,12.43-27.34c3.39-4.42,5.18-15.02,6.11-23.88
			c0.81-7.64,0.97-14,0.97-14l-13.2-15.08c0,0,30.81-44.96,44.51-48.55c0.08-0.03,0.16-0.05,0.24-0.07c2.62-0.6,5.88-0.99,9.45-1.22
			c14.92-0.97,35.1,0.78,35.1,0.78s0.39-0.06,1.11-0.14h0.01c1.82-0.2,5.7-0.54,10.46-0.43c10.23,0.23,24.53,2.53,31.25,12.73
			C182.02,205.66,182.78,207.76,182.78,207.76z"/>
	</g>
	<g>
		<path class="st61" d="M139.68,176.11L104.3,226.9c0,0,14.11,39.07,14.61,44.03c0.19,1.96,1.16,3.86,2.27,5.43
			c-0.73,1.71-1.25,3.11-1.5,4.07c-2.1,8.21-1.91,22.56-7.45,23.7c-5.55,1.15-79.74,1.91-79.74,1.91s6.12-19.12,12.43-27.34
			c3.39-4.42,5.18-15.02,6.11-23.88l33.95-31.14l-1.67-46.49"/>
	</g>
	<g>
		<polyline class="st66" points="93,175.9 95.34,218.6 129.21,176.54 129.22,176.54 		"/>
	</g>
	<g>
		
			<rect x="93.51" y="212.44" transform="matrix(0.1109 -0.9938 0.9938 0.1109 -140.2439 293.687)" class="st67" width="1" height="25.57"/>
	</g>
	<g>
		
			<rect x="91.82" y="215.68" transform="matrix(0.098 -0.9952 0.9952 0.098 -145.7624 299.4742)" class="st67" width="1" height="28.93"/>
	</g>
	<g>
		
			<rect x="142.61" y="223.3" transform="matrix(0.4942 -0.8693 0.8693 0.4942 -110.9807 256.8489)" class="st68" width="45.28" height="1"/>
	</g>
	<g>
		
			<rect x="41.45" y="226.85" transform="matrix(0.2384 -0.9712 0.9712 0.2384 -178.6652 226.8732)" class="st68" width="27.74" height="1"/>
	</g>
	<g>
		
			<rect x="48.47" y="216.92" transform="matrix(0.8042 -0.5944 0.5944 0.8042 -124.4455 73.2679)" class="st68" width="1" height="17.16"/>
	</g>
	<g>
		
			<rect x="136.19" y="213.45" transform="matrix(0.7363 -0.6767 0.6767 0.7363 -115.8593 151.698)" class="st68" width="1" height="22.08"/>
	</g>
	<g>
		<path class="st69" d="M291.11,242.77c0,0,14.2,5.54,15.59,8.96c1.39,3.42,2.45,6.13,3.87,6.13c1.42,0,7.49-1.85,8.46-0.81
			s-12.33,15.79-12.33,15.79l-11.13-8.37L291.11,242.77z"/>
	</g>
	<g>
		<path class="st63" d="M319.03,257.06c0,0-2.98,23.31-2.98,23.32c-0.07,0.51-10.17-2.93-11.13-3.38c-2.8-1.33-5.33-3.15-7.67-5.19
			c-5.06-4.37-8.84-10.17-9.38-19.51c-0.15-2.48-0.75-4.99-0.09-7.38c0.65-2.32,2.18-4.4,4.42-5.39c0.04-0.02,0.07-0.03,0.11-0.05
			v16.98h3.26c0.01,0.03,0.02,0.05,0.03,0.08c0.85,2.49,2.37,8.34,5.76,8.34c1.34-0.01,0.94-0.95-1.22-5.06
			c-0.6-1.15-1.15-2.28-1.57-3.36h8.13c1.5,2.18,3.79,4.5,5.44,2.75C314.43,256.79,319.03,257.06,319.03,257.06z"/>
	</g>
	<g>
		<polygon class="st70" points="387.14,172.02 407,193.94 408.99,257.37 387.14,227.07 		"/>
	</g>
	<g>
		<path class="st65" d="M295.57,256.46h-3.26v-16.98c0.27-0.12,0.55-0.2,0.83-0.22c0.09,0,0.18,0.01,0.27,0.01
			c1.61-0.01,0.46,6.28,0.4,7.81C293.68,250.07,294.6,253.57,295.57,256.46z"/>
	</g>
	<g>
		<path class="st63" d="M306.7,256.46h-8.13c-1.12-2.8-1.43-5.17,0.22-6.14c2.3-1.35,5.67,1.88,6.61,3.91
			C305.66,254.79,306.12,255.62,306.7,256.46z"/>
	</g>
	<g>
		<path class="st65" d="M389.41,164.57v91.89H306.7c-0.58-0.84-1.04-1.67-1.3-2.23c-0.94-2.03-4.31-5.26-6.61-3.91
			c-1.65,0.97-1.34,3.34-0.22,6.14h-3c-0.97-2.89-1.89-6.39-1.76-9.38c0.06-1.53,1.21-7.82-0.4-7.81c-0.09,0-0.18-0.01-0.27-0.01
			c-0.28,0.02-0.56,0.1-0.83,0.22v-74.91c0-7.05,5.72-12.77,12.78-12.77h71.54C383.69,151.8,389.41,157.52,389.41,164.57z"/>
	</g>
	<g>
		<path class="st71" d="M389.41,164.57v4.35h-97.1v-4.35c0-7.05,5.72-12.77,12.78-12.77h71.54
			C383.69,151.8,389.41,157.52,389.41,164.57z"/>
	</g>
	<g>
		<path class="st51" d="M373.03,209.61v28.14c0,3.56-2.89,6.45-6.45,6.45h-51.76c-2.97,0-5.47-2.01-6.21-4.74
			c-0.16-0.54-0.24-1.12-0.24-1.71v-28.14c0-3.56,2.89-6.45,6.45-6.45h51.76C370.14,203.16,373.03,206.05,373.03,209.61z"/>
	</g>
	<g>
		<path class="st61" d="M373.03,209.61v28.14c0,3.56-2.89,6.45-6.45,6.45h-51.76c-2.97,0-5.47-2.01-6.21-4.74
			c3.51-0.41,8.05-0.72,11.33-0.2c6.15,0.98,17.65,0.25,20.76-7.97c3.1-8.22,9.31-23.38,24.84-18.81
			C365.54,212.48,370.84,214.42,373.03,209.61z"/>
	</g>
	<g>
		<rect x="308.61" y="179.3" class="st51" width="63.02" height="1"/>
	</g>
	<g>
		<rect x="308.61" y="186.95" class="st51" width="63.02" height="1"/>
	</g>
	<g>
		<rect x="308.61" y="194.81" class="st51" width="33.02" height="1"/>
	</g>
	<g>
		<path class="st72" d="M329.45,151.79c0,0-3.71-3.77,0-4.28s13.55-1.28,16.74-2.68c3.2-1.41,22.75-3.33,25.43,6.96
			c0,0-9.59,0.7-13.55,2.88s-8.69,4.86-9.84,2.68c-1.15-2.17,0.17-3.81,2.6-5.56H329.45z"/>
	</g>
	<g>
		<circle class="st51" cx="303.25" cy="161.95" r="2.74"/>
	</g>
	<g>
		<circle class="st51" cx="313.01" cy="161.95" r="2.74"/>
	</g>
	<g>
		<circle class="st51" cx="322.69" cy="161.95" r="2.74"/>
	</g>
	<g>
		<path class="st73" d="M350.84,152.29c-0.16,0-0.31-0.07-0.41-0.21c-0.16-0.23-0.1-0.54,0.12-0.7c0.23-0.16,5.79-3.99,10.86-3.99
			c0.28,0,0.5,0.22,0.5,0.5s-0.22,0.5-0.5,0.5c-4.76,0-10.23,3.78-10.29,3.81C351.04,152.27,350.94,152.29,350.84,152.29z"/>
	</g>
	<g>
		<path class="st74" d="M396.7,118c-6.28,9.8,8.56,13.85,8.56,13.85s-0.62,4.36,4.67,8.1c1.69,1.19,8.34,1.04,7.47,4.51
			c-1.71,6.85,10.27,13.7,10.27,13.7s1.56-9.34,5.29-12.92s9.5-14.48-1.09-20.08c0,0,1.09-11.05-10.9-9.03c0,0-0.47-6.69-7.32-6.07
			c-6.85,0.62-6.38,6.54-6.38,6.54S400.59,111.93,396.7,118z"/>
	</g>
	<g>
		<path class="st75" d="M410.49,134.27c-3.85,0-5.36-3.26-5.38-3.3l0.91-0.41c0.07,0.15,1.7,3.61,6.17,2.49
			c1.91-0.48,2.94-1.36,3.85-2.13c1.34-1.14,2.5-2.13,5.48-0.6c1.9,0.97,4.12,0.94,6.1-0.1c2.03-1.06,3.48-3.03,3.76-5.13l0.99,0.14
			c-0.34,2.46-1.94,4.66-4.29,5.89c-2.27,1.18-4.83,1.22-7.01,0.1c-2.39-1.22-3.09-0.62-4.38,0.47c-0.94,0.8-2.12,1.8-4.25,2.34
			C411.73,134.2,411.09,134.27,410.49,134.27z"/>
	</g>
	<g>
		<path class="st75" d="M430.79,137.73c-7.05,0-11.93-7.32-11.99-7.4l0.84-0.55c0.06,0.09,6.14,9.19,14.25,6.43l0.21-0.07l0.19,0.11
			c0.01,0,0.77,0.42,1.41,0.07c0.61-0.33,0.99-1.26,1.11-2.71l1,0.08c-0.15,1.83-0.7,3.02-1.64,3.52c-0.85,0.45-1.75,0.18-2.15,0.01
			C432.9,137.57,431.82,137.73,430.79,137.73z"/>
	</g>
	<g>
		<path class="st75" d="M401.58,128.71c-0.14-0.08-3.4-2.03-4.18-5.68c-0.52-2.4,0.16-4.94,2.01-7.55l0.82,0.58
			c-1.68,2.37-2.3,4.65-1.85,6.76c0.69,3.22,3.69,5.02,3.71,5.04L401.58,128.71z"/>
	</g>
	<g>
		<path class="st58" d="M431.26,166.88l-24.91,12.92l-0.57-7.78l-0.37-5.14c-22.41,0.47-14.32-19.61-14.32-19.61
			s-5.45-2.03-0.62-4.98c4.82-2.96,11.36-14.01,11.36-14.01l3.74,2.49c-0.16,10.43,9.94,10.04,9.94,10.04
			c2.49-1.56,6.56,1.63,6.87,4.59c0.31,2.96-2.49,5.6-2.49,5.6l7.78,7.16L431.26,166.88z"/>
	</g>
	<g>
		<path class="st73" d="M419.22,153.23c0,0-0.74,12.89-13.44,18.79l-0.37-5.14C405.41,166.88,415.44,164.24,419.22,153.23z"/>
	</g>
	<g>
		<path class="st74" d="M419.22,148.84c-0.17,0-0.33-0.09-0.43-0.24c-0.14-0.24-0.07-0.54,0.17-0.69l0,0c0,0,0.65-0.53,0.23-2.55
			c-0.1-0.49-0.32-0.83-0.68-1.05c-0.9-0.54-2.33-0.12-2.35-0.12c-0.27,0.08-0.54-0.07-0.62-0.34c-0.08-0.26,0.07-0.54,0.33-0.62
			c0.08-0.02,1.86-0.55,3.15,0.21c0.61,0.36,0.99,0.93,1.15,1.71c0.57,2.76-0.56,3.53-0.69,3.61
			C419.4,148.81,419.31,148.84,419.22,148.84z"/>
	</g>
	<g>
		<path class="st74" d="M417.24,146.44c-0.07,0-0.15-0.02-0.21-0.05c-0.25-0.12-0.36-0.42-0.24-0.67c0.57-1.21,2.17-1.16,3.02-0.95
			c0.27,0.07,0.43,0.34,0.36,0.61c-0.07,0.27-0.34,0.43-0.61,0.36c-0.01,0-1.51-0.35-1.87,0.41
			C417.61,146.33,417.43,146.44,417.24,146.44z"/>
	</g>
	<g>
		<path class="st76" d="M506.67,289.43c-2.28,19.8-47.72,32.49-62.7,36.55c-14.97,4.06-24.75-20.05-24.75-20.05
			s-84.69-8.94-88.7-10.58s-1.83-8.02-1.83-8.02l-15.68-6.2l6.02-24.07l86.38,1.46c0,0-0.73-8.2-1.46-19.41
			c-0.73-10.97-1.45-24.84-1.49-36.75c-0.09-24.07,2.42-28.94,14.08-33.36c45.62-17.3,56.81,1.78,56.57,9.05
			c-0.25,7.26-10.1,14.16-10.1,14.16S508.96,269.63,506.67,289.43z"/>
	</g>
	<g>
		<path class="st77" d="M459.04,293.04c-6.64,18.71-39.82,12.89-39.82,12.89s-84.69-8.94-88.7-10.58s-1.83-8.02-1.83-8.02
			l-15.68-6.2l6.02-24.07l86.2-0.6c0,0-0.55-6.14-1.28-17.35c14.06-14.88,51.33-14.89,51.43-14.89
			C455.38,224.22,465.69,274.33,459.04,293.04z"/>
	</g>
	<g>
		
			<rect x="404.48" y="235.44" transform="matrix(0.9974 -0.0722 0.0722 0.9974 -16.6925 29.9019)" class="st76" width="2" height="21.04"/>
	</g>
	<g>
		<path class="st78" d="M454.63,224.26c-0.65-11.22-8.52-26.54-8.6-26.69l1.33-0.69c0.33,0.64,8.1,15.76,8.77,27.3L454.63,224.26z"
			/>
	</g>
	<g>
		<path class="st78" d="M462.38,192.62c-8.11-12.35-17.54-19.59-28.04-21.51c-13.84-2.54-24.81,5.25-24.92,5.33l-0.88-1.21
			c0.46-0.34,11.56-8.24,26.05-5.6c10.92,2,20.7,9.46,29.04,22.17L462.38,192.62z"/>
	</g>
	<g>
		
			<rect x="317.55" y="271.85" transform="matrix(0.2873 -0.9578 0.9578 0.2873 -23.4125 513.2338)" class="st79" width="31.28" height="1"/>
	</g>
	<g>
		<path class="st74" d="M402.46,137.18c-0.17,0-0.34-0.09-0.43-0.25c-1.39-2.36-4.82-2.36-4.86-2.34c-0.23-0.02-0.5-0.22-0.51-0.49
			s0.22-0.5,0.49-0.51c0.17,0.01,4.05-0.03,5.73,2.84c0.14,0.24,0.06,0.54-0.18,0.68C402.63,137.16,402.54,137.18,402.46,137.18z"/>
	</g>
	<g>
		
			<ellipse transform="matrix(0.3672 -0.9301 0.9301 0.3672 120.8384 460.002)" class="st80" cx="398.49" cy="141.19" rx="2.34" ry="1.32"/>
	</g>
	<g>
		<path class="st73" d="M392.66,154.21c-1.54,0-2.64-0.43-2.73-0.47l0.37-0.93c0.15,0.06,3.78,1.46,7-1.4l0.66,0.75
			C396.13,153.79,394.18,154.21,392.66,154.21z"/>
	</g>
</g>
</svg>
